<mxfile host="app.diagrams.net" agent="Mozilla/5.0 (X11; Linux x86_64; rv:143.0) Gecko/20100101 Firefox/143.0" version="28.2.7">
  <diagram name="Page 1" id="Page-1">
    <mxGraphModel dx="938" dy="528" grid="1" gridSize="10" guides="1" tooltips="1" connect="1" arrows="1" fold="1" page="1" pageScale="1" pageWidth="827" pageHeight="1169" math="1" shadow="0">
      <root>
        <mxCell id="0" />
        <mxCell id="1" parent="0" />
        <mxCell id="wBhXDO2YBKzwOheYyQIE-30" value="&lt;div align=&quot;right&quot;&gt;V&lt;sub&gt;S&lt;/sub&gt;&lt;/div&gt;" style="text;html=1;whiteSpace=wrap;strokeColor=none;fillColor=none;align=right;verticalAlign=middle;rounded=0;fontFamily=Helvetica;fontSize=11;fontColor=default;labelBackgroundColor=default;convertToSvg=1;" vertex="1" parent="1">
          <mxGeometry x="20" y="265.18" width="23" height="30" as="geometry" />
        </mxCell>
        <mxCell id="wBhXDO2YBKzwOheYyQIE-31" value="I" style="text;html=1;whiteSpace=wrap;strokeColor=none;fillColor=none;align=center;verticalAlign=middle;rounded=0;fontFamily=Helvetica;fontSize=11;fontColor=default;labelBackgroundColor=default;convertToSvg=1;" vertex="1" parent="1">
          <mxGeometry x="140" y="330.18" width="20" height="20" as="geometry" />
        </mxCell>
        <mxCell id="wBhXDO2YBKzwOheYyQIE-37" value="" style="pointerEvents=1;verticalLabelPosition=bottom;shadow=0;dashed=0;align=center;html=1;verticalAlign=top;shape=mxgraph.electrical.signal_sources.source;aspect=fixed;points=[[0.5,0,0],[1,0.5,0],[0.5,1,0],[0,0.5,0]];elSignalType=ac;convertToSvg=1;" vertex="1" parent="1">
          <mxGeometry x="50" y="250.18" width="60" height="60" as="geometry" />
        </mxCell>
        <mxCell id="wBhXDO2YBKzwOheYyQIE-38" value="R" style="pointerEvents=1;verticalLabelPosition=bottom;shadow=0;dashed=0;align=center;html=1;verticalAlign=top;shape=mxgraph.electrical.resistors.resistor_2;convertToSvg=1;" vertex="1" parent="1">
          <mxGeometry x="170" y="190.18" width="100" height="20" as="geometry" />
        </mxCell>
        <mxCell id="wBhXDO2YBKzwOheYyQIE-39" value="C" style="pointerEvents=1;verticalLabelPosition=bottom;shadow=0;dashed=0;align=left;html=1;verticalAlign=middle;shape=mxgraph.electrical.capacitors.capacitor_1;rotation=90;horizontal=0;convertToSvg=1;" vertex="1" parent="1">
          <mxGeometry x="310" y="250.18" width="100" height="60" as="geometry" />
        </mxCell>
        <mxCell id="wBhXDO2YBKzwOheYyQIE-40" style="edgeStyle=orthogonalEdgeStyle;rounded=0;orthogonalLoop=1;jettySize=auto;html=1;exitX=1;exitY=0.5;exitDx=0;exitDy=0;exitPerimeter=0;entryX=0;entryY=0.5;entryDx=0;entryDy=0;entryPerimeter=0;endArrow=none;endFill=0;convertToSvg=1;" edge="1" parent="1" source="wBhXDO2YBKzwOheYyQIE-38" target="wBhXDO2YBKzwOheYyQIE-39">
          <mxGeometry relative="1" as="geometry" />
        </mxCell>
        <mxCell id="wBhXDO2YBKzwOheYyQIE-41" style="edgeStyle=orthogonalEdgeStyle;shape=connector;rounded=0;orthogonalLoop=1;jettySize=auto;html=1;exitX=1;exitY=0.5;exitDx=0;exitDy=0;exitPerimeter=0;entryX=0.5;entryY=1;entryDx=0;entryDy=0;entryPerimeter=0;strokeColor=default;align=center;verticalAlign=middle;fontFamily=Helvetica;fontSize=11;fontColor=default;labelBackgroundColor=default;endArrow=none;endFill=0;convertToSvg=1;" edge="1" parent="1" source="wBhXDO2YBKzwOheYyQIE-39" target="wBhXDO2YBKzwOheYyQIE-37">
          <mxGeometry relative="1" as="geometry">
            <Array as="points">
              <mxPoint x="360" y="360.18" />
              <mxPoint x="80" y="360.18" />
            </Array>
          </mxGeometry>
        </mxCell>
        <mxCell id="wBhXDO2YBKzwOheYyQIE-42" style="edgeStyle=orthogonalEdgeStyle;shape=connector;rounded=0;orthogonalLoop=1;jettySize=auto;html=1;exitX=0;exitY=0.5;exitDx=0;exitDy=0;exitPerimeter=0;entryX=0.5;entryY=0;entryDx=0;entryDy=0;entryPerimeter=0;strokeColor=default;align=center;verticalAlign=middle;fontFamily=Helvetica;fontSize=11;fontColor=default;labelBackgroundColor=default;endArrow=none;endFill=0;convertToSvg=1;" edge="1" parent="1" source="wBhXDO2YBKzwOheYyQIE-38" target="wBhXDO2YBKzwOheYyQIE-37">
          <mxGeometry relative="1" as="geometry" />
        </mxCell>
        <mxCell id="wBhXDO2YBKzwOheYyQIE-49" value="" style="edgeStyle=none;orthogonalLoop=1;jettySize=auto;html=1;rounded=0;strokeColor=default;align=center;verticalAlign=middle;fontFamily=Helvetica;fontSize=11;fontColor=default;labelBackgroundColor=default;endArrow=none;endFill=0;startArrow=classic;startFill=1;convertToSvg=1;" edge="1" parent="1">
          <mxGeometry width="80" relative="1" as="geometry">
            <mxPoint x="126" y="350.18" as="sourcePoint" />
            <mxPoint x="166" y="350.18" as="targetPoint" />
            <Array as="points" />
          </mxGeometry>
        </mxCell>
        <mxCell id="wBhXDO2YBKzwOheYyQIE-50" value="$$\theta$$" style="text;html=1;whiteSpace=wrap;strokeColor=none;fillColor=none;align=center;verticalAlign=middle;rounded=0;" vertex="1" parent="1">
          <mxGeometry x="474" y="241.95999999999998" width="20" height="20" as="geometry" />
        </mxCell>
        <mxCell id="wBhXDO2YBKzwOheYyQIE-51" value="" style="edgeStyle=none;orthogonalLoop=1;jettySize=auto;html=1;rounded=0;" edge="1" parent="1">
          <mxGeometry width="80" relative="1" as="geometry">
            <mxPoint x="440" y="239.95999999999998" as="sourcePoint" />
            <mxPoint x="600" y="239.95999999999998" as="targetPoint" />
            <Array as="points" />
          </mxGeometry>
        </mxCell>
        <mxCell id="wBhXDO2YBKzwOheYyQIE-52" value="" style="edgeStyle=none;orthogonalLoop=1;jettySize=auto;html=1;rounded=0;" edge="1" parent="1">
          <mxGeometry width="80" relative="1" as="geometry">
            <mxPoint x="440" y="239.95999999999998" as="sourcePoint" />
            <mxPoint x="440" y="339.96" as="targetPoint" />
            <Array as="points" />
          </mxGeometry>
        </mxCell>
        <mxCell id="wBhXDO2YBKzwOheYyQIE-53" value="" style="edgeStyle=none;orthogonalLoop=1;jettySize=auto;html=1;rounded=0;" edge="1" parent="1">
          <mxGeometry width="80" relative="1" as="geometry">
            <mxPoint x="440" y="239.95999999999998" as="sourcePoint" />
            <mxPoint x="600" y="339.96" as="targetPoint" />
            <Array as="points" />
          </mxGeometry>
        </mxCell>
        <mxCell id="wBhXDO2YBKzwOheYyQIE-54" value="" style="curved=1;endArrow=none;html=1;rounded=0;endFill=0;" edge="1" parent="1">
          <mxGeometry width="50" height="50" relative="1" as="geometry">
            <mxPoint x="470" y="258.96" as="sourcePoint" />
            <mxPoint x="474" y="239.95999999999998" as="targetPoint" />
            <Array as="points">
              <mxPoint x="479" y="250.95999999999998" />
            </Array>
          </mxGeometry>
        </mxCell>
        <mxCell id="wBhXDO2YBKzwOheYyQIE-55" value="V&lt;sub&gt;R&lt;/sub&gt;" style="text;html=1;whiteSpace=wrap;strokeColor=none;fillColor=none;align=center;verticalAlign=middle;rounded=0;" vertex="1" parent="1">
          <mxGeometry x="572" y="219.95999999999998" width="20" height="20" as="geometry" />
        </mxCell>
        <mxCell id="wBhXDO2YBKzwOheYyQIE-56" value="V&lt;sub&gt;C&lt;/sub&gt;" style="text;html=1;whiteSpace=wrap;strokeColor=none;fillColor=none;align=center;verticalAlign=middle;rounded=0;" vertex="1" parent="1">
          <mxGeometry x="420" y="309.96" width="20" height="20" as="geometry" />
        </mxCell>
        <mxCell id="wBhXDO2YBKzwOheYyQIE-57" value="V&lt;sub&gt;S&lt;/sub&gt;" style="text;html=1;whiteSpace=wrap;strokeColor=none;fillColor=none;align=center;verticalAlign=middle;rounded=0;" vertex="1" parent="1">
          <mxGeometry x="580" y="309.96" width="20" height="20" as="geometry" />
        </mxCell>
        <mxCell id="wBhXDO2YBKzwOheYyQIE-58" value="" style="edgeStyle=none;orthogonalLoop=1;jettySize=auto;html=1;rounded=0;endArrow=none;endFill=0;dashed=1;" edge="1" parent="1">
          <mxGeometry width="80" relative="1" as="geometry">
            <mxPoint x="440" y="339.71999999999997" as="sourcePoint" />
            <mxPoint x="600" y="339.96" as="targetPoint" />
            <Array as="points" />
          </mxGeometry>
        </mxCell>
        <mxCell id="wBhXDO2YBKzwOheYyQIE-59" value="" style="edgeStyle=none;orthogonalLoop=1;jettySize=auto;html=1;rounded=0;endArrow=none;endFill=0;dashed=1;" edge="1" parent="1">
          <mxGeometry width="80" relative="1" as="geometry">
            <mxPoint x="600" y="239.46999999999997" as="sourcePoint" />
            <mxPoint x="600" y="339.96" as="targetPoint" />
            <Array as="points" />
          </mxGeometry>
        </mxCell>
        <mxCell id="wBhXDO2YBKzwOheYyQIE-60" value="" style="curved=1;endArrow=none;html=1;rounded=0;endFill=0;" edge="1" parent="1">
          <mxGeometry width="50" height="50" relative="1" as="geometry">
            <mxPoint x="440" y="263.96" as="sourcePoint" />
            <mxPoint x="460" y="239.95999999999998" as="targetPoint" />
            <Array as="points">
              <mxPoint x="461" y="256.96" />
            </Array>
          </mxGeometry>
        </mxCell>
        <mxCell id="wBhXDO2YBKzwOheYyQIE-61" value="$$-90\unicode{xB0}$$" style="text;html=1;whiteSpace=wrap;strokeColor=none;fillColor=none;align=center;verticalAlign=middle;rounded=0;convertToSvg=0;" vertex="1" parent="1">
          <mxGeometry x="440" y="261.96" width="40" height="20" as="geometry" />
        </mxCell>
        <mxCell id="wBhXDO2YBKzwOheYyQIE-62" value="" style="edgeStyle=none;orthogonalLoop=1;jettySize=auto;html=1;rounded=0;strokeColor=light-dark(#FF3333,#FF3333);" edge="1" parent="1">
          <mxGeometry width="80" relative="1" as="geometry">
            <mxPoint x="440" y="239.96" as="sourcePoint" />
            <mxPoint x="550" y="240" as="targetPoint" />
            <Array as="points" />
          </mxGeometry>
        </mxCell>
        <mxCell id="wBhXDO2YBKzwOheYyQIE-63" value="I" style="text;html=1;whiteSpace=wrap;strokeColor=none;fillColor=none;align=center;verticalAlign=middle;rounded=0;fontColor=light-dark(#FF3333,#FF3333);" vertex="1" parent="1">
          <mxGeometry x="510" y="219.95999999999998" width="20" height="20" as="geometry" />
        </mxCell>
      </root>
    </mxGraphModel>
  </diagram>
</mxfile>
